ffmpeg started on 2016-12-08 at 04:22:05
Report written to "Output/x264/results/ffmpeg/sintelslower9000k.log"
Command line:
Tools/ffmpeg/ffmpeg -benchmark -y -i Input/y4m/sintel.y4m -c:v libx264 -preset slower -b:v 9000k -an Output/x264/encoded/sintelslower9000k.mkv
ffmpeg version N-82227-gdb23fde Copyright (c) 2000-2016 the FFmpeg developers
  built with gcc 5.4.0 (Ubuntu 5.4.0-6ubuntu1~16.04.2) 20160609
  configuration: --prefix=/home/jaroslav/ffmpeg_build --pkg-config-flags=--static --extra-cflags=-I/home/jaroslav/ffmpeg_build/include --extra-ldflags=-L/home/jaroslav/ffmpeg_build/lib --bindir=/home/jaroslav/bin --enable-gpl --enable-libass --enable-libfdk-aac --enable-libfreetype --enable-libmp3lame --enable-libopus --enable-libtheora --enable-libvorbis --enable-libvpx --enable-libx264 --enable-libx265 --enable-nvenc --enable-libmfx --enable-libxvid --enable-libgsm --enable-libopencore-amrnb --enable-version3 --enable-nonfree
  libavutil      55. 35.100 / 55. 35.100
  libavcodec     57. 66.101 / 57. 66.101
  libavformat    57. 57.100 / 57. 57.100
  libavdevice    57.  2.100 / 57.  2.100
  libavfilter     6. 66.100 /  6. 66.100
  libswscale      4.  3.100 /  4.  3.100
  libswresample   2.  4.100 /  2.  4.100
  libpostproc    54.  2.100 / 54.  2.100
Input #0, yuv4mpegpipe, from 'Input/y4m/sintel.y4m':
  Duration: 00:00:20.83, start: 0.000000, bitrate: 2057307 kb/s
    Stream #0:0: Video: rawvideo (I420 / 0x30323449), yuv420p(progressive), 4096x1744, SAR 1:1 DAR 256:109, 24 fps, 24 tbr, 24 tbn, 24 tbc
[libx264 @ 0x44021c0] using SAR=1/1
[libx264 @ 0x44021c0] DPB size (8 frames, 223232 mbs) > level limit (6 frames, 184320 mbs)
[libx264 @ 0x44021c0] using cpu capabilities: MMX2 SSE2Fast SSSE3 SSE4.2 AVX FMA3 AVX2 LZCNT BMI2
[libx264 @ 0x44021c0] profile High, level 5.2
[libx264 @ 0x44021c0] 264 - core 148 - H.264/MPEG-4 AVC codec - Copyleft 2003-2016 - http://www.videolan.org/x264.html - options: cabac=1 ref=8 deblock=1:0:0 analyse=0x3:0x133 me=umh subme=9 psy=1 psy_rd=1.00:0.00 mixed_ref=1 me_range=16 chroma_me=1 trellis=2 8x8dct=1 cqm=0 deadzone=21,11 fast_pskip=1 chroma_qp_offset=-2 threads=6 lookahead_threads=1 sliced_threads=0 nr=0 decimate=1 interlaced=0 bluray_compat=0 constrained_intra=0 bframes=3 b_pyramid=2 b_adapt=2 b_bias=0 direct=3 weightb=1 open_gop=0 weightp=2 keyint=250 keyint_min=24 scenecut=40 intra_refresh=0 rc_lookahead=60 rc=abr mbtree=1 bitrate=9000 ratetol=1.0 qcomp=0.60 qpmin=0 qpmax=69 qpstep=4 ip_ratio=1.40 aq=1:1.00
Output #0, matroska, to 'Output/x264/encoded/sintelslower9000k.mkv':
  Metadata:
    encoder         : Lavf57.57.100
    Stream #0:0: Video: h264 (libx264) (H264 / 0x34363248), yuv420p, 4096x1744 [SAR 1:1 DAR 256:109], q=-1--1, 9000 kb/s, 24 fps, 1k tbn, 24 tbc
    Metadata:
      encoder         : Lavc57.66.101 libx264
    Side data:
      cpb: bitrate max/min/avg: 0/0/9000000 buffer size: 0 vbv_delay: -1
Stream mapping:
  Stream #0:0 -> #0:0 (rawvideo (native) -> h264 (libx264))
Press [q] to stop, [?] for help
frame=   10 fps=0.0 q=0.0 size=       0kB time=00:00:00.00 bitrate=N/A speed=   0x    frame=   16 fps=7.4 q=0.0 size=       0kB time=00:00:00.00 bitrate=N/A speed=   0x    frame=   17 fps=3.5 q=0.0 size=       0kB time=00:00:00.00 bitrate=N/A speed=   0x    frame=   18 fps=2.2 q=0.0 size=       0kB time=00:00:00.00 bitrate=N/A speed=   0x    frame=   19 fps=1.9 q=0.0 size=       0kB time=00:00:00.00 bitrate=N/A speed=   0x    frame=   30 fps=2.9 q=0.0 size=       0kB time=00:00:00.00 bitrate=N/A speed=   0x    frame=   42 fps=3.9 q=0.0 size=       0kB time=00:00:00.00 bitrate=N/A speed=   0x    frame=   53 fps=4.7 q=0.0 size=       0kB time=00:00:00.00 bitrate=N/A speed=   0x    frame=   65 fps=5.5 q=0.0 size=       0kB time=00:00:00.00 bitrate=N/A speed=   0x    frame=   67 fps=3.6 q=0.0 size=       0kB time=00:00:00.00 bitrate=N/A speed=   0x    frame=   71 fps=3.7 q=25.0 size=       1kB time=-00:00:00.08 bitrate=N/A speed=N/A    frame=   73 fps=3.5 q=34.0 size=       1kB time=00:00:00.00 bitrate=5888.0kbits/s speed=4.81e-05x    frame=   75 fps=3.4 q=32.0 size=       1kB time=00:00:00.08 bitrate=  70.1kbits/s speed=0.00382x    frame=   77 fps=3.3 q=38.0 size=       1kB time=00:00:00.16 bitrate=  35.0kbits/s speed=0.00719x    frame=   78 fps=3.3 q=44.0 size=       1kB time=00:00:00.20 bitrate=  28.2kbits/s speed=0.00872x    frame=   80 fps=3.3 q=44.0 size=       1kB time=00:00:00.29 bitrate=  20.1kbits/s speed=0.0119x    frame=   83 fps=3.2 q=44.0 size=       1kB time=00:00:00.41 bitrate=  14.1kbits/s speed=0.016x    frame=   85 fps=3.1 q=43.0 size=       1kB time=00:00:00.50 bitrate=  11.8kbits/s speed=0.0185x    frame=   87 fps=3.1 q=43.0 size=       1kB time=00:00:00.58 bitrate=  10.1kbits/s speed=0.021x    frame=   89 fps=3.1 q=43.0 size=       1kB time=00:00:00.66 bitrate=   8.8kbits/s speed=0.0235x    frame=   91 fps=3.1 q=43.0 size=       1kB time=00:00:00.75 bitrate=   7.8kbits/s speed=0.0257x    frame=   92 fps=3.1 q=43.0 size=       1kB time=00:00:00.79 bitrate=   7.4kbits/s speed=0.0265x    frame=   93 fps=3.0 q=43.0 size=       1kB time=00:00:00.83 bitrate=   7.1kbits/s speed=0.0272x    frame=   95 fps=3.0 q=43.0 size=       1kB time=00:00:00.91 bitrate=   6.4kbits/s speed=0.029x    frame=   98 fps=3.0 q=42.0 size=       1kB time=00:00:01.04 bitrate=   5.6kbits/s speed=0.0322x    frame=  100 fps=3.0 q=42.0 size=       1kB time=00:00:01.12 bitrate=   5.2kbits/s speed=0.034x    frame=  101 fps=3.0 q=42.0 size=       1kB time=00:00:01.16 bitrate=   5.0kbits/s speed=0.0342x    frame=  102 fps=2.9 q=42.0 size=       1kB time=00:00:01.20 bitrate=   4.9kbits/s speed=0.0347x    frame=  104 fps=2.9 q=41.0 size=       1kB time=00:00:01.29 bitrate=   4.6kbits/s speed=0.0364x    frame=  106 fps=2.9 q=41.0 size=       1kB time=00:00:01.37 bitrate=   4.3kbits/s speed=0.0378x    frame=  108 fps=2.9 q=41.0 size=       1kB time=00:00:01.45 bitrate=   4.0kbits/s speed=0.039x    frame=  110 fps=2.9 q=41.0 size=       1kB time=00:00:01.54 bitrate=   3.8kbits/s speed=0.0403x    frame=  112 fps=2.9 q=41.0 size=       1kB time=00:00:01.62 bitrate=   3.6kbits/s speed=0.0415x    frame=  115 fps=2.9 q=41.0 size=       1kB time=00:00:01.75 bitrate=   3.4kbits/s speed=0.044x    frame=  116 fps=2.9 q=40.0 size=       1kB time=00:00:01.79 bitrate=   3.3kbits/s speed=0.0442x    frame=  118 fps=2.9 q=40.0 size=       1kB time=00:00:01.87 bitrate=   3.1kbits/s speed=0.0454x    frame=  121 fps=2.9 q=40.0 size=       1kB time=00:00:02.00 bitrate=   2.9kbits/s speed=0.0475x    frame=  122 fps=2.8 q=40.0 size=       1kB time=00:00:02.04 bitrate=   2.9kbits/s speed=0.0477x    frame=  123 fps=2.8 q=40.0 size=       1kB time=00:00:02.08 bitrate=   2.8kbits/s speed=0.0479x    frame=  124 fps=2.8 q=40.0 size=       1kB time=00:00:02.12 bitrate=   2.8kbits/s speed=0.0482x    frame=  126 fps=2.8 q=40.0 size=       1kB time=00:00:02.20 bitrate=   2.7kbits/s speed=0.0491x    frame=  127 fps=2.8 q=40.0 size=       1kB time=00:00:02.25 bitrate=   2.6kbits/s speed=0.0494x    frame=  129 fps=2.8 q=40.0 size=       1kB time=00:00:02.33 bitrate=   2.5kbits/s speed=0.0499x    frame=  131 fps=2.8 q=40.0 size=       1kB time=00:00:02.41 bitrate=   2.4kbits/s speed=0.0508x    frame=  133 fps=2.7 q=40.0 size=       1kB time=00:00:02.50 bitrate=   2.4kbits/s speed=0.0512x    frame=  135 fps=2.7 q=40.0 size=       1kB time=00:00:02.58 bitrate=   2.3kbits/s speed=0.0523x    frame=  137 fps=2.7 q=40.0 size=       1kB time=00:00:02.66 bitrate=   2.2kbits/s speed=0.052x    frame=  139 fps=2.7 q=39.0 size=       1kB time=00:00:02.75 bitrate=   2.1kbits/s speed=0.053x    frame=  141 fps=2.7 q=39.0 size=       1kB time=00:00:02.83 bitrate=   2.1kbits/s speed=0.0536x    frame=  143 fps=2.6 q=39.0 size=       1kB time=00:00:02.91 bitrate=   2.0kbits/s speed=0.054x    frame=  144 fps=2.6 q=39.0 size=       1kB time=00:00:02.95 bitrate=   2.0kbits/s speed=0.0539x    frame=  146 fps=2.6 q=39.0 size=       1kB time=00:00:03.04 bitrate=   1.9kbits/s speed=0.0545x    frame=  148 fps=2.6 q=39.0 size=       1kB time=00:00:03.12 bitrate=   1.9kbits/s speed=0.0553x    frame=  149 fps=2.6 q=39.0 size=       1kB time=00:00:03.16 bitrate=   1.9kbits/s speed=0.0555x    frame=  150 fps=2.6 q=39.0 size=       1kB time=00:00:03.20 bitrate=   1.8kbits/s speed=0.0553x    frame=  152 fps=2.6 q=39.0 size=       1kB time=00:00:03.29 bitrate=   1.8kbits/s speed=0.056x    frame=  154 fps=2.6 q=39.0 size=       1kB time=00:00:03.37 bitrate=   1.7kbits/s speed=0.0562x    frame=  155 fps=2.6 q=39.0 size=       1kB time=00:00:03.41 bitrate=   1.7kbits/s speed=0.0564x    frame=  157 fps=2.6 q=39.0 size=       1kB time=00:00:03.50 bitrate=   1.7kbits/s speed=0.0569x    frame=  158 fps=2.5 q=39.0 size=       1kB time=00:00:03.54 bitrate=   1.7kbits/s speed=0.057x    frame=  160 fps=2.5 q=39.0 size=       1kB time=00:00:03.62 bitrate=   1.6kbits/s speed=0.0576x    frame=  161 fps=2.5 q=38.0 size=       1kB time=00:00:03.66 bitrate=   1.6kbits/s speed=0.0576x    frame=  163 fps=2.5 q=38.0 size=       1kB time=00:00:03.75 bitrate=   1.6kbits/s speed=0.0583x    frame=  165 fps=2.5 q=38.0 size=       1kB time=00:00:03.83 bitrate=   1.5kbits/s speed=0.0589x    frame=  166 fps=2.5 q=38.0 size=       1kB time=00:00:03.87 bitrate=   1.5kbits/s speed=0.0589x    frame=  167 fps=2.5 q=38.0 size=       1kB time=00:00:03.91 bitrate=   1.5kbits/s speed=0.0587x    frame=  171 fps=2.5 q=38.0 size=       1kB time=00:00:04.08 bitrate=   1.4kbits/s speed=0.0605x    frame=  173 fps=2.5 q=38.0 size=       1kB time=00:00:04.16 bitrate=   1.4kbits/s speed=0.06x    frame=  176 fps=2.5 q=38.0 size=       1kB time=00:00:04.29 bitrate=   1.4kbits/s speed=0.0613x    frame=  179 fps=2.5 q=38.0 size=    5158kB time=00:00:04.41 bitrate=9563.3kbits/s speed=0.0618x    frame=  181 fps=2.5 q=36.0 size=    5158kB time=00:00:04.50 bitrate=9386.9kbits/s speed=0.0624x    frame=  183 fps=2.5 q=38.0 size=    5158kB time=00:00:04.58 bitrate=9216.9kbits/s speed=0.063x    frame=  185 fps=2.5 q=37.0 size=    5158kB time=00:00:04.66 bitrate=9051.1kbits/s speed=0.0634x    frame=  191 fps=2.6 q=37.0 size=    5418kB time=00:00:04.91 bitrate=9025.4kbits/s speed=0.066x    frame=  192 fps=2.5 q=37.0 size=    5418kB time=00:00:04.95 bitrate=8950.7kbits/s speed=0.0658x    frame=  194 fps=2.6 q=37.0 size=    5418kB time=00:00:05.04 bitrate=8801.7kbits/s speed=0.0664x    frame=  196 fps=2.6 q=37.0 size=    5418kB time=00:00:05.12 bitrate=8659.1kbits/s speed=0.0669x    frame=  197 fps=2.6 q=37.0 size=    5418kB time=00:00:05.16 bitrate=8588.8kbits/s speed=0.067x    frame=  198 fps=2.5 q=37.0 size=    5418kB time=00:00:05.20 bitrate=8521.2kbits/s speed=0.0667x    frame=  200 fps=2.5 q=37.0 size=    5418kB time=00:00:05.29 bitrate=8385.9kbits/s speed=0.0672x    frame=  202 fps=2.5 q=37.0 size=    5418kB time=00:00:05.37 bitrate=8256.5kbits/s speed=0.0677x    frame=  204 fps=2.5 q=37.0 size=    5418kB time=00:00:05.45 bitrate=8130.9kbits/s speed=0.0679x    frame=  206 fps=2.5 q=37.0 size=    5418kB time=00:00:05.54 bitrate=8007.7kbits/s speed=0.0682x    frame=  208 fps=2.5 q=37.0 size=    5418kB time=00:00:05.62 bitrate=7889.6kbits/s speed=0.0688x    frame=  210 fps=2.5 q=37.0 size=    5418kB time=00:00:05.70 bitrate=7774.9kbits/s speed=0.0693x    frame=  211 fps=2.5 q=37.0 size=    5418kB time=00:00:05.75 bitrate=7718.1kbits/s speed=0.0691x    frame=  213 fps=2.5 q=37.0 size=    5418kB time=00:00:05.83 bitrate=7608.3kbits/s speed=0.0695x    frame=  215 fps=2.5 q=37.0 size=    5418kB time=00:00:05.91 bitrate=7500.3kbits/s speed=0.07x    frame=  217 fps=2.5 q=37.0 size=    5418kB time=00:00:06.00 bitrate=7396.6kbits/s speed=0.0705x    frame=  219 fps=2.5 q=37.0 size=    5418kB time=00:00:06.08 bitrate=7295.7kbits/s speed=0.0708x    frame=  220 fps=2.5 q=37.0 size=    5418kB time=00:00:06.12 bitrate=7245.6kbits/s speed=0.0707x    frame=  222 fps=2.5 q=37.0 size=    5418kB time=00:00:06.20 bitrate=7148.8kbits/s speed=0.0709x    frame=  225 fps=2.6 q=37.0 size=    5418kB time=00:00:06.33 bitrate=7007.7kbits/s speed=0.0718x    frame=  228 fps=2.5 q=37.0 size=    5418kB time=00:00:06.45 bitrate=6872.1kbits/s speed=0.0716x    frame=  231 fps=2.5 q=37.0 size=    5418kB time=00:00:06.58 bitrate=6741.6kbits/s speed=0.0724x    frame=  233 fps=2.5 q=37.0 size=    5418kB time=00:00:06.66 bitrate=6656.7kbits/s speed=0.0729x    frame=  234 fps=2.5 q=37.0 size=    5418kB time=00:00:06.70 bitrate=6616.0kbits/s speed=0.0727x    frame=  235 fps=2.5 q=37.0 size=    5418kB time=00:00:06.75 bitrate=6574.8kbits/s speed=0.0726x    frame=  236 fps=2.5 q=37.0 size=    5418kB time=00:00:06.79 bitrate=6534.2kbits/s speed=0.0726x    frame=  238 fps=2.5 q=36.0 size=    5418kB time=00:00:06.87 bitrate=6455.3kbits/s speed=0.073x    frame=  240 fps=2.5 q=36.0 size=    5418kB time=00:00:06.95 bitrate=6378.3kbits/s speed=0.0735x    frame=  242 fps=2.5 q=36.0 size=    5418kB time=00:00:07.04 bitrate=6302.3kbits/s speed=0.0734x    frame=  244 fps=2.5 q=36.0 size=    5418kB time=00:00:07.12 bitrate=6228.8kbits/s speed=0.0738x    frame=  245 fps=2.5 q=36.0 size=    5418kB time=00:00:07.16 bitrate=6192.4kbits/s speed=0.0738x    frame=  246 fps=2.5 q=36.0 size=    5418kB time=00:00:07.20 bitrate=6157.1kbits/s speed=0.0738x    frame=  248 fps=2.5 q=36.0 size=    5418kB time=00:00:07.29 bitrate=6086.2kbits/s speed=0.0741x    frame=  250 fps=2.5 q=36.0 size=    5418kB time=00:00:07.37 bitrate=6017.7kbits/s speed=0.0743x    frame=  252 fps=2.5 q=36.0 size=    5418kB time=00:00:07.45 bitrate=5950.8kbits/s speed=0.0748x    frame=  253 fps=2.5 q=36.0 size=    5418kB time=00:00:07.50 bitrate=5917.4kbits/s speed=0.0748x    frame=  259 fps=2.6 q=36.0 size=    8078kB time=00:00:07.75 bitrate=8537.5kbits/s speed=0.0768x    frame=  262 fps=2.6 q=36.0 size=    8078kB time=00:00:07.87 bitrate=8402.0kbits/s speed=0.0771x    frame=  266 fps=2.6 q=36.0 size=    8078kB time=00:00:08.04 bitrate=8227.5kbits/s speed=0.0781x    frame=  267 fps=2.6 q=36.0 size=    8078kB time=00:00:08.08 bitrate=8185.8kbits/s speed=0.0779x    frame=  269 fps=2.6 q=36.0 size=    8078kB time=00:00:08.16 bitrate=8101.6kbits/s speed=0.0779x    frame=  271 fps=2.6 q=36.0 size=    8078kB time=00:00:08.25 bitrate=8020.1kbits/s speed=0.0781x    frame=  273 fps=2.6 q=36.0 size=    8078kB time=00:00:08.33 bitrate=7940.2kbits/s speed=0.0782x    frame=  275 fps=2.6 q=36.0 size=    8078kB time=00:00:08.41 bitrate=7861.0kbits/s speed=0.0785x    frame=  277 fps=2.6 q=36.0 size=    8078kB time=00:00:08.50 bitrate=7784.3kbits/s speed=0.0789x    frame=  279 fps=2.6 q=36.0 size=    8078kB time=00:00:08.58 bitrate=7709.0kbits/s speed=0.0787x    frame=  283 fps=2.6 q=36.0 size=    8078kB time=00:00:08.75 bitrate=7561.9kbits/s speed=0.0797x    frame=  285 fps=2.6 q=36.0 size=    8078kB time=00:00:08.83 bitrate=7490.8kbits/s speed=0.0797x    frame=  287 fps=2.6 q=36.0 size=    8078kB time=00:00:08.91 bitrate=7420.3kbits/s speed=0.0797x    frame=  289 fps=2.6 q=36.0 size=    8078kB time=00:00:09.00 bitrate=7351.9kbits/s speed=0.08x    frame=  292 fps=2.6 q=36.0 size=    8078kB time=00:00:09.12 bitrate=7251.2kbits/s speed=0.0808x    frame=  293 fps=2.6 q=36.0 size=    8078kB time=00:00:09.16 bitrate=7217.9kbits/s speed=0.0804x    frame=  294 fps=2.6 q=36.0 size=    8078kB time=00:00:09.20 bitrate=7185.8kbits/s speed=0.0803x    frame=  299 fps=2.6 q=35.0 size=    8078kB time=00:00:09.41 bitrate=7026.3kbits/s speed=0.0815x    frame=  300 fps=2.6 q=35.0 size=    8078kB time=00:00:09.45 bitrate=6995.9kbits/s speed=0.0814x    frame=  301 fps=2.6 q=35.0 size=    8078kB time=00:00:09.50 bitrate=6965.0kbits/s speed=0.0812x    frame=  303 fps=2.6 q=35.0 size=    8078kB time=00:00:09.58 bitrate=6904.6kbits/s speed=0.0815x    frame=  307 fps=2.6 q=35.0 size=    8078kB time=00:00:09.75 bitrate=6786.4kbits/s speed=0.0821x    frame=  310 fps=2.6 q=35.0 size=    8078kB time=00:00:09.87 bitrate=6700.5kbits/s speed=0.0827x    frame=  311 fps=2.6 q=35.0 size=    8078kB time=00:00:09.91 bitrate=6672.1kbits/s speed=0.0824x    frame=  316 fps=2.6 q=35.0 size=    8078kB time=00:00:10.12 bitrate=6535.1kbits/s speed=0.0837x    frame=  317 fps=2.6 q=35.0 size=    8078kB time=00:00:10.16 bitrate=6508.1kbits/s speed=0.0836x    frame=  319 fps=2.6 q=35.0 size=    8078kB time=00:00:10.25 bitrate=6455.4kbits/s speed=0.0839x    frame=  320 fps=2.6 q=35.0 size=    8078kB time=00:00:10.29 bitrate=6429.0kbits/s speed=0.0834x    frame=  324 fps=2.6 q=35.0 size=    8078kB time=00:00:10.45 bitrate=6327.0kbits/s speed=0.0843x    frame=  326 fps=2.6 q=35.0 size=    8078kB time=00:00:10.54 bitrate=6276.6kbits/s speed=0.0845x    frame=  327 fps=2.6 q=35.0 size=    8078kB time=00:00:10.58 bitrate=6252.3kbits/s speed=0.0844x    frame=  331 fps=2.6 q=32.0 size=    8078kB time=00:00:10.75 bitrate=6155.2kbits/s speed=0.0854x    frame=  333 fps=2.6 q=34.0 size=    8078kB time=00:00:10.83 bitrate=6108.0kbits/s speed=0.0856x    frame=  335 fps=2.6 q=34.0 size=    8078kB time=00:00:10.91 bitrate=6061.0kbits/s speed=0.0859x    frame=  342 fps=2.7 q=34.0 size=   10891kB time=00:00:11.20 bitrate=7959.9kbits/s speed=0.0876x    frame=  345 fps=2.7 q=34.0 size=   10891kB time=00:00:11.33 bitrate=7872.1kbits/s speed=0.088x    frame=  348 fps=2.7 q=34.0 size=   10891kB time=00:00:11.45 bitrate=7786.2kbits/s speed=0.0882x    frame=  350 fps=2.7 q=34.0 size=   10891kB time=00:00:11.54 bitrate=7729.6kbits/s speed=0.0884x    frame=  354 fps=2.7 q=34.0 size=   10891kB time=00:00:11.70 bitrate=7620.0kbits/s speed=0.0892x    frame=  355 fps=2.7 q=34.0 size=   10891kB time=00:00:11.75 bitrate=7592.8kbits/s speed=0.0888x    frame=  360 fps=2.7 q=34.0 size=   10891kB time=00:00:11.95 bitrate=7460.7kbits/s speed=0.0899x    frame=  361 fps=2.7 q=33.0 size=   10891kB time=00:00:12.00 bitrate=7434.6kbits/s speed=0.0899x    frame=  363 fps=2.7 q=34.0 size=   10891kB time=00:00:12.08 bitrate=7383.5kbits/s speed=0.09x    frame=  367 fps=2.7 q=33.0 size=   10891kB time=00:00:12.25 bitrate=7282.9kbits/s speed=0.0907x    frame=  370 fps=2.7 q=33.0 size=   10891kB time=00:00:12.37 bitrate=7209.3kbits/s speed=0.0912x    frame=  371 fps=2.7 q=33.0 size=   10891kB time=00:00:12.41 bitrate=7184.9kbits/s speed=0.0911x    frame=  376 fps=2.7 q=33.0 size=   10891kB time=00:00:12.62 bitrate=7066.6kbits/s speed=0.0923x    frame=  378 fps=2.7 q=33.0 size=   10891kB time=00:00:12.70 bitrate=7020.4kbits/s speed=0.0922x    frame=  383 fps=2.8 q=33.0 size=   10891kB time=00:00:12.91 bitrate=6906.8kbits/s speed=0.0934x    frame=  385 fps=2.8 q=33.0 size=   10891kB time=00:00:13.00 bitrate=6862.7kbits/s speed=0.0933x    frame=  390 fps=2.8 q=32.0 size=   10891kB time=00:00:13.20 bitrate=6754.7kbits/s speed=0.0944x    frame=  392 fps=2.8 q=32.0 size=   10891kB time=00:00:13.29 bitrate=6712.0kbits/s speed=0.0943x    frame=  396 fps=2.8 q=32.0 size=   10891kB time=00:00:13.45 bitrate=6629.2kbits/s speed=0.095x    frame=  400 fps=2.8 q=32.0 size=   10891kB time=00:00:13.62 bitrate=6548.0kbits/s speed=0.0955x    frame=  402 fps=2.8 q=32.0 size=   10891kB time=00:00:13.70 bitrate=6508.3kbits/s speed=0.0958x    frame=  407 fps=2.8 q=32.0 size=   10891kB time=00:00:13.91 bitrate=6410.6kbits/s speed=0.0963x    frame=  412 fps=2.8 q=32.0 size=   10891kB time=00:00:14.12 bitrate=6316.2kbits/s speed=0.0974x    frame=  415 fps=2.8 q=31.0 size=   10891kB time=00:00:14.25 bitrate=6260.8kbits/s speed=0.0974x    frame=  419 fps=2.8 q=31.0 size=   10891kB time=00:00:14.41 bitrate=6188.3kbits/s speed=0.0981x    frame=  423 fps=2.9 q=31.0 size=   10891kB time=00:00:14.58 bitrate=6117.8kbits/s speed=0.0986x    frame=  426 fps=2.9 q=31.0 size=   10891kB time=00:00:14.70 bitrate=6065.8kbits/s speed=0.0991x    frame=  428 fps=2.9 q=29.0 size=   10891kB time=00:00:14.79 bitrate=6031.4kbits/s speed=0.0993x    frame=  432 fps=2.9 q=31.0 size=   10891kB time=00:00:14.95 bitrate=5964.5kbits/s speed=0.0997x    frame=  438 fps=2.9 q=31.0 size=   13608kB time=00:00:15.20 bitrate=7329.7kbits/s speed=0.101x    frame=  440 fps=2.9 q=31.0 size=   13608kB time=00:00:15.29 bitrate=7289.4kbits/s speed=0.101x    frame=  442 fps=2.9 q=31.0 size=   13608kB time=00:00:15.37 bitrate=7250.1kbits/s speed=0.101x    frame=  444 fps=2.9 q=31.0 size=   13608kB time=00:00:15.45 bitrate=7211.1kbits/s speed=0.101x    frame=  446 fps=2.9 q=31.0 size=   13608kB time=00:00:15.54 bitrate=7172.2kbits/s speed=0.101x    frame=  448 fps=2.9 q=30.0 size=   13608kB time=00:00:15.62 bitrate=7134.1kbits/s speed=0.101x    frame=  450 fps=2.9 q=31.0 size=   13608kB time=00:00:15.70 bitrate=7096.4kbits/s speed=0.101x    frame=  454 fps=2.9 q=30.0 size=   13608kB time=00:00:15.87 bitrate=7021.7kbits/s speed=0.102x    frame=  456 fps=2.9 q=30.0 size=   13608kB time=00:00:15.95 bitrate=6985.2kbits/s speed=0.102x    frame=  458 fps=2.9 q=30.0 size=   13608kB time=00:00:16.04 bitrate=6948.6kbits/s speed=0.102x    frame=  462 fps=2.9 q=30.0 size=   13608kB time=00:00:16.20 bitrate=6877.5kbits/s speed=0.102x    frame=  464 fps=2.9 q=30.0 size=   13608kB time=00:00:16.29 bitrate=6842.0kbits/s speed=0.102x    frame=  467 fps=2.9 q=30.0 size=   13608kB time=00:00:16.41 bitrate=6789.9kbits/s speed=0.102x    frame=  470 fps=2.9 q=30.0 size=   13608kB time=00:00:16.54 bitrate=6738.6kbits/s speed=0.102x    frame=  471 fps=2.9 q=31.0 size=   13608kB time=00:00:16.58 bitrate=6721.9kbits/s speed=0.102x    frame=  477 fps=2.9 q=31.0 size=   13608kB time=00:00:16.83 bitrate=6622.1kbits/s speed=0.102x    frame=  481 fps=2.9 q=31.0 size=   13608kB time=00:00:17.00 bitrate=6557.1kbits/s speed=0.102x    frame=  484 fps=2.9 q=28.0 size=   13608kB time=00:00:17.12 bitrate=6509.2kbits/s speed=0.103x    frame=  487 fps=2.9 q=31.0 size=   13608kB time=00:00:17.25 bitrate=6462.0kbits/s speed=0.103x    frame=  491 fps=2.9 q=31.0 size=   16108kB time=00:00:17.41 bitrate=7575.6kbits/s speed=0.104x    frame=  494 fps=2.9 q=31.0 size=   16108kB time=00:00:17.54 bitrate=7521.7kbits/s speed=0.104x    frame=  498 fps=2.9 q=31.0 size=   16108kB time=00:00:17.70 bitrate=7451.2kbits/s speed=0.104x    frame=  500 fps=2.6 q=-1.0 Lsize=   19713kB time=00:00:20.70 bitrate=7798.0kbits/s speed=0.11x    
video:19708kB audio:0kB subtitle:0kB other streams:0kB global headers:0kB muxing overhead: 0.024444%
bench: utime=671.904s
bench: maxrss=2152788kB
[libx264 @ 0x44021c0] frame I:6     Avg QP:24.62  size:174937
[libx264 @ 0x44021c0] frame P:273   Avg QP:31.05  size: 50134
[libx264 @ 0x44021c0] frame B:221   Avg QP:30.28  size: 24634
[libx264 @ 0x44021c0] consecutive B-frames: 35.2% 11.6% 18.0% 35.2%
[libx264 @ 0x44021c0] mb I  I16..4: 24.4% 71.3%  4.2%
[libx264 @ 0x44021c0] mb P  I16..4: 18.1% 24.4%  0.2%  P16..4: 24.6%  1.7%  1.3%  0.0%  0.0%    skip:29.6%
[libx264 @ 0x44021c0] mb B  I16..4:  1.2%  1.8%  0.1%  B16..8: 32.1%  2.3%  0.4%  direct: 1.0%  skip:61.2%  L0:42.0% L1:55.7% BI: 2.3%
[libx264 @ 0x44021c0] final ratefactor: 28.00
[libx264 @ 0x44021c0] 8x8 transform intra:57.8% inter:86.8%
[libx264 @ 0x44021c0] direct mvs  spatial:99.1% temporal:0.9%
[libx264 @ 0x44021c0] coded y,uvDC,uvAC intra: 14.4% 23.3% 1.3% inter: 5.0% 5.1% 0.1%
[libx264 @ 0x44021c0] i16 v,h,dc,p: 22% 26%  8% 43%
[libx264 @ 0x44021c0] i8 v,h,dc,ddl,ddr,vr,hd,vl,hu: 20% 14% 36%  4%  5%  5%  6%  4%  5%
[libx264 @ 0x44021c0] i4 v,h,dc,ddl,ddr,vr,hd,vl,hu: 14% 16%  8%  7% 13% 11% 14%  6% 11%
[libx264 @ 0x44021c0] i8c dc,h,v,p: 77% 14%  7%  2%
[libx264 @ 0x44021c0] Weighted P-Frames: Y:1.1% UV:0.7%
[libx264 @ 0x44021c0] ref P L0: 64.7% 16.1%  9.3%  3.1%  2.0%  1.6%  1.6%  1.2%  0.3%  0.0%
[libx264 @ 0x44021c0] ref B L0: 88.9%  6.2%  2.5%  1.0%  0.7%  0.5%  0.2%
[libx264 @ 0x44021c0] ref B L1: 98.3%  1.7%
[libx264 @ 0x44021c0] kb/s:7749.27
